<svg width="25" height="24" viewBox="0 0 25 24" fill="none" xmlns="http://www.w3.org/2000/svg">
<g id="Component 1">
<path id="Vector" d="M25 12.2516C25 11.468 24.9269 10.7241 24.8016 10H13V14.4734H19.7572C19.4543 15.9414 18.5666 17.1812 17.2507 18.0243V21H21.282C23.6423 18.927 25 15.872 25 12.2516Z" fill="#4285F4"/>
<path id="Vector_2" d="M12.4914 24C15.9678 24 18.8755 22.8877 21 21.0031L16.8584 17.9135C15.6996 18.655 14.2296 19.1081 12.4914 19.1081C9.13305 19.1081 6.2897 16.9351 5.27039 14H1V17.1823C3.11373 21.2194 7.45923 24 12.4914 24Z" fill="#34A853"/>
<path id="Vector_3" d="M6 14.1283C5.71537 13.4591 5.56736 12.7435 5.56736 12C5.56736 11.2565 5.72676 10.5409 6 9.87175V7H1.46869C0.535103 8.50558 0 10.197 0 12C0 13.803 0.535103 15.4944 1.46869 17L6 14.1283Z" fill="#FBBC05"/>
<path id="Vector_4" d="M12.4362 4.89186C14.3262 4.89186 16.0133 5.52008 17.3481 6.74562L21 3.22348C18.7896 1.22554 15.8959 0 12.4362 0C7.42819 0 3.10358 2.78064 1 6.81771L5.24987 10C6.26428 7.06488 9.09397 4.89186 12.4362 4.89186Z" fill="#EA4335"/>
</g>
</svg>
